<?xml version="1.0" encoding="utf-8"?>
<!-- Generator: Adobe Illustrator 23.0.3, SVG Export Plug-In . SVG Version: 6.00 Build 0)  -->
<svg xmlns="http://www.w3.org/2000/svg" xmlns:xlink="http://www.w3.org/1999/xlink" x="0px" y="0px" viewBox="0 0 75 65" style="enable-background:new 0 0 75 65;" xml:space="preserve">
<g>
	<polygon style="fill:#F52756;" points="65,10 65,5 60,5 55,5 50,5 50,10 45,10 45,15 40,15 40,20 35,20 35,15 30,15 30,10 25,10    25,5 20,5 15,5 10,5 10,10 5,10 5,15 5,20 5,25 5,30 10,30 10,35 15,35 15,40 20,40 20,45 25,45 25,50 30,50 30,55 35,55 35,60    40,60 40,55 45,55 45,50 50,50 50,45 55,45 55,40 60,40 60,35 65,35 65,30 70,30 70,25 70,20 70,15 70,10" />
	<g>
		<rect x="5" y="5" width="5" height="5" />
		<polygon points="5,20 5,15 5,10 0,10 0,15 0,20 0,25 0,30 5,30 5,25" />
		<rect x="5" y="30" width="5" height="5" />
		<rect x="10" y="35" width="5" height="5" />
		<rect x="15" y="40" width="5" height="5" />
		<rect x="20" y="45" width="5" height="5" />
		<rect x="25" y="50" width="5" height="5" />
		<rect x="30" y="55" width="5" height="5" />
		<rect x="35" y="60" width="5" height="5" />
		<polygon points="70,10 70,15 70,20 70,25 70,30 75,30 75,25 75,20 75,15 75,10" />
		<polygon points="20,5 25,5 25,0 20,0 15,0 10,0 10,5 15,5" />
		<rect x="25" y="5" width="5" height="5" />
		<rect x="30" y="10" width="5" height="5" />
		<rect x="35" y="15" width="5" height="5" />
		<rect x="40" y="10" width="5" height="5" />
		<rect x="45" y="5" width="5" height="5" />
		<rect x="55" y="40" width="5" height="5" />
		<rect x="50" y="45" width="5" height="5" />
		<rect x="45" y="50" width="5" height="5" />
		<rect x="40" y="55" width="5" height="5" />
		<rect x="60" y="35" width="5" height="5" />
		<rect x="65" y="30" width="5" height="5" />
		<polygon points="60,5 65,5 65,0 60,0 55,0 50,0 50,5 55,5" />
		<rect x="65" y="5" width="5" height="5" />
	</g>
</g>
</svg>
